<svg width="920" height="900" viewBox="0 0 920 900" xmlns="http://www.w3.org/2000/svg" xmlns:xlink="http://www.w3.org/1999/xlink">
  <defs>
    <clipPath id="clip_proj"><rect width="920" height="900" rx="20"/></clipPath>
    <linearGradient id="edge_proj" x1="0" y1="0" x2="1" y2="1">
      <stop offset="0%" stop-color="#7aa2f7" stop-opacity="0.55"/>
      <stop offset="50%" stop-color="#bb9af7" stop-opacity="0.35"/>
      <stop offset="100%" stop-color="#9ece6a" stop-opacity="0.45"/>
    </linearGradient>
    <linearGradient id="glass_proj" x1="0" y1="0" x2="0" y2="1">
      <stop offset="0%" stop-color="#ffffff" stop-opacity="0.07"/>
      <stop offset="18%" stop-color="#ffffff" stop-opacity="0.02"/>
      <stop offset="100%" stop-color="#ffffff" stop-opacity="0"/>
    </linearGradient>
    <radialGradient id="orb1_proj" cx="15%" cy="0%" r="60%">
      <stop offset="0%" stop-color="#7aa2f7" stop-opacity="0.20"/>
      <stop offset="100%" stop-color="#7aa2f7" stop-opacity="0"/>
    </radialGradient>
    <radialGradient id="orb2_proj" cx="100%" cy="100%" r="70%">
      <stop offset="0%" stop-color="#bb9af7" stop-opacity="0.16"/>
      <stop offset="100%" stop-color="#bb9af7" stop-opacity="0"/>
    </radialGradient>

    <symbol id="ic-lang2" viewBox="0 0 16 16">
      <path d="M5 3 L1 8 L5 13" fill="none" stroke="currentColor" stroke-width="1.6" stroke-linecap="round" stroke-linejoin="round"/>
      <path d="M11 3 L15 8 L11 13" fill="none" stroke="currentColor" stroke-width="1.6" stroke-linecap="round" stroke-linejoin="round"/>
    </symbol>
    <symbol id="ic-link2" viewBox="0 0 16 16">
      <rect x="1" y="5" width="7" height="6" rx="3" fill="none" stroke="currentColor" stroke-width="1.3" transform="rotate(-45 4.5 8)"/>
      <rect x="8" y="5" width="7" height="6" rx="3" fill="none" stroke="currentColor" stroke-width="1.3" transform="rotate(-45 11.5 8)"/>
    </symbol>
    <symbol id="ic-git2" viewBox="0 0 16 16">
      <circle cx="4" cy="4" r="2" fill="currentColor"/><circle cx="12" cy="12" r="2" fill="currentColor"/>
      <path d="M4 6 C4 10 6 12 10 12" fill="none" stroke="currentColor" stroke-width="1.3"/>
    </symbol>
    <symbol id="ic-pulse2" viewBox="0 0 16 16">
      <path d="M1 8 h3 l2-5 l4 10 l2-5 h3" fill="none" stroke="currentColor" stroke-width="1.4" stroke-linecap="round" stroke-linejoin="round"/>
    </symbol>
  </defs>
  <style>
    .k{fill:#9ece6a;font-family:'JetBrains Mono','Fira Code',ui-monospace,monospace;font-size:14px;font-weight:700;}
    .v{fill:#e8eaf6;font-family:'JetBrains Mono','Fira Code',ui-monospace,monospace;font-size:14px;}
    .m{fill:#7982a9;font-family:'JetBrains Mono','Fira Code',ui-monospace,monospace;font-size:12.5px;}
    .b{fill:#7aa2f7;font-family:'JetBrains Mono','Fira Code',ui-monospace,monospace;font-size:14px;font-weight:700;}
    .title{fill:#7982a9;font-family:'JetBrains Mono','Fira Code',ui-monospace,monospace;font-size:12.5px;letter-spacing:.4px;}
    .prompt{fill:#9ece6a;font-family:'JetBrains Mono','Fira Code',ui-monospace,monospace;font-size:13px;}
    .impact{fill:#e8eaf6;font-family:'JetBrains Mono','Fira Code',ui-monospace,monospace;font-size:12.5px;font-style:italic;}
    .fieldlbl{fill:#7982a9;font-family:'JetBrains Mono','Fira Code',ui-monospace,monospace;font-size:10.5px;letter-spacing:.5px;}
    .link{fill:#7aa2f7;font-family:'JetBrains Mono','Fira Code',ui-monospace,monospace;font-size:11.5px;text-decoration:underline;}
    .gh{fill:#7982a9;font-family:'JetBrains Mono','Fira Code',ui-monospace,monospace;font-size:11.5px;text-decoration:underline;}
    .tag{fill:#7982a9;font-family:'JetBrains Mono','Fira Code',ui-monospace,monospace;font-size:10.5px;}
    .dot-live{animation:pulse 2.2s ease-in-out infinite;transform-box:fill-box;transform-origin:center;}
    @keyframes pulse{0%,100%{opacity:1;transform:scale(1);}50%{opacity:.4;transform:scale(.82);}}
    .row{opacity:1;animation:rise .6s cubic-bezier(.16,1,.3,1) both;}
    @keyframes rise{from{opacity:0;transform:translateY(8px);}to{opacity:1;transform:translateY(0);}}
    .sheen{animation:sheen 6s ease-in-out infinite;}
    @keyframes sheen{0%,100%{opacity:.5;}50%{opacity:1;}}
  </style>
  <g clip-path="url(#clip_proj)">
    <rect width="920" height="900" fill="#0d0e14"/>
    <rect width="920" height="900" fill="url(#orb1_proj)"/>
    <rect width="920" height="900" fill="url(#orb2_proj)"/>
    <rect width="920" height="900" fill="url(#glass_proj)"/>
    <rect width="920" height="42" fill="#0a0a0f" opacity="0.75"/>
    <rect x="0" y="41" width="920" height="1.6" fill="url(#edge_proj)" class="sheen"/>
    <circle cx="23" cy="21" r="6" fill="#f7768e"/><circle cx="43" cy="21" r="6" fill="#e0af68"/>
    <circle cx="63" cy="21" r="6" fill="#9ece6a" class="dot-live"/>
    <text x="460.0" y="26" text-anchor="middle" class="title">sonam@github — projects</text>
    <text x="30" y="88" class="prompt">~ % ls -la ~/projects --detailed</text>

    <!-- CodeFusion -->
    <g class="row" style="animation-delay:0.10s">
      <rect x="28" y="124" width="864" height="200" rx="12" fill="#14161f" opacity="0.75" stroke="#2a2d42" stroke-width="1"/>
      <rect x="28" y="124" width="864" height="200" rx="12" fill="url(#glass_proj)"/>
      <rect x="28" y="124" width="4" height="200" rx="2" fill="#e0af68"/>
      <text x="50" y="156" class="b" font-size="16">CodeFusion</text>
      <rect x="162" y="141" width="39" height="20" rx="10" fill="#9ece6a" opacity="0.14"/>
      <circle cx="175" cy="151" r="3.3" fill="#9ece6a"/>
      <text x="183" y="155" fill="#9ece6a" font-family="'JetBrains Mono','Fira Code',ui-monospace,monospace" font-size="10.5" font-weight="700">LIVE</text>
      <text x="868" y="156" text-anchor="end" class="v" font-size="14">★ 0</text>
      <text x="50" y="179" class="impact">Impact: cut manual pair-programming setup to zero — two people co-edit the same file instantly.</text>

      <text x="50" y="203" class="fieldlbl">TECH</text>
      <g style="color:#7982a9">
        <rect x="50" y="209" width="67" height="22" rx="11" fill="#171a28" opacity="0.8" stroke="#2a2d42"/>
        <use href="#ic-lang2" xlink:href="#ic-lang2" x="57" y="214" width="12" height="12"/>
        <text x="74" y="224" class="tag">React</text>

        <rect x="125" y="209" width="80" height="22" rx="11" fill="#171a28" opacity="0.8" stroke="#2a2d42"/>
        <use href="#ic-lang2" xlink:href="#ic-lang2" x="132" y="214" width="12" height="12"/>
        <text x="149" y="224" class="tag">Node.js</text>

        <rect x="213" y="209" width="93" height="22" rx="11" fill="#171a28" opacity="0.8" stroke="#2a2d42"/>
        <use href="#ic-lang2" xlink:href="#ic-lang2" x="220" y="214" width="12" height="12"/>
        <text x="237" y="224" class="tag">Socket.io</text>

        <rect x="314" y="209" width="74" height="22" rx="11" fill="#171a28" opacity="0.8" stroke="#2a2d42"/>
        <use href="#ic-lang2" xlink:href="#ic-lang2" x="321" y="214" width="12" height="12"/>
        <text x="338" y="224" class="tag">Monaco</text>
      </g>

      <text x="50" y="255" class="fieldlbl">LIVE</text>
      <a href="https://codefusion-collaborative-editor.vercel.app" xlink:href="https://codefusion-collaborative-editor.vercel.app" target="_blank">
        <g style="color:#7aa2f7">
          <use href="#ic-link2" xlink:href="#ic-link2" x="50" y="262" width="12" height="12"/>
        </g>
        <text x="68" y="272" class="link">codefusion-collaborative-editor.vercel.app</text>
      </a>

      <text x="460" y="255" class="fieldlbl">GITHUB</text>
      <a href="https://github.com/SonamNarula/CodeFusion" xlink:href="https://github.com/SonamNarula/CodeFusion" target="_blank">
        <g style="color:#7982a9">
          <use href="#ic-git2" xlink:href="#ic-git2" x="460" y="262" width="12" height="12"/>
        </g>
        <text x="478" y="272" class="gh">github.com/SonamNarula/CodeFusion</text>
      </a>

      <text x="50" y="302" class="fieldlbl">STATUS</text>
      <g style="color:#7982a9">
        <use href="#ic-pulse2" xlink:href="#ic-pulse2" x="50" y="308" width="12" height="12"/>
      </g>
      <text x="68" y="318" class="m" font-size="11.5">Actively maintained &#183; real-time CRDT sync &#183; multi-cursor editing</text>
    </g>

    <!-- Trackify -->
    <g class="row" style="animation-delay:0.18s">
      <rect x="28" y="340" width="864" height="200" rx="12" fill="#14161f" opacity="0.75" stroke="#2a2d42" stroke-width="1"/>
      <rect x="28" y="340" width="864" height="200" rx="12" fill="url(#glass_proj)"/>
      <rect x="28" y="340" width="4" height="200" rx="2" fill="#7aa2f7"/>
      <text x="50" y="372" class="b" font-size="16">Trackify</text>
      <rect x="143" y="357" width="39" height="20" rx="10" fill="#9ece6a" opacity="0.14"/>
      <circle cx="156" cy="367" r="3.3" fill="#9ece6a"/>
      <text x="164" y="371" fill="#9ece6a" font-family="'JetBrains Mono','Fira Code',ui-monospace,monospace" font-size="10.5" font-weight="700">LIVE</text>
      <text x="868" y="372" text-anchor="end" class="v" font-size="14">★ 3</text>
      <text x="50" y="395" class="impact">Impact: replaced 4 scattered spreadsheets with one dashboard for daily DSA habit tracking.</text>

      <text x="50" y="419" class="fieldlbl">TECH</text>
      <g style="color:#7982a9">
        <rect x="50" y="425" width="100" height="22" rx="11" fill="#171a28" opacity="0.8" stroke="#2a2d42"/>
        <use href="#ic-lang2" xlink:href="#ic-lang2" x="57" y="430" width="12" height="12"/>
        <text x="74" y="440" class="tag">TypeScript</text>

        <rect x="158" y="425" width="67" height="22" rx="11" fill="#171a28" opacity="0.8" stroke="#2a2d42"/>
        <use href="#ic-lang2" xlink:href="#ic-lang2" x="165" y="430" width="12" height="12"/>
        <text x="182" y="440" class="tag">React</text>

        <rect x="233" y="425" width="80" height="22" rx="11" fill="#171a28" opacity="0.8" stroke="#2a2d42"/>
        <use href="#ic-lang2" xlink:href="#ic-lang2" x="240" y="430" width="12" height="12"/>
        <text x="257" y="440" class="tag">Node.js</text>
      </g>

      <text x="50" y="471" class="fieldlbl">LIVE</text>
      <a href="https://trackify.wasmer.app" xlink:href="https://trackify.wasmer.app" target="_blank">
        <g style="color:#7aa2f7">
          <use href="#ic-link2" xlink:href="#ic-link2" x="50" y="478" width="12" height="12"/>
        </g>
        <text x="68" y="488" class="link">trackify.wasmer.app</text>
      </a>

      <text x="460" y="471" class="fieldlbl">GITHUB</text>
      <a href="https://github.com/SonamNarula/Trackify" xlink:href="https://github.com/SonamNarula/Trackify" target="_blank">
        <g style="color:#7982a9">
          <use href="#ic-git2" xlink:href="#ic-git2" x="460" y="478" width="12" height="12"/>
        </g>
        <text x="478" y="488" class="gh">github.com/SonamNarula/Trackify</text>
      </a>

      <text x="50" y="518" class="fieldlbl">STATUS</text>
      <g style="color:#7982a9">
        <use href="#ic-pulse2" xlink:href="#ic-pulse2" x="50" y="524" width="12" height="12"/>
      </g>
      <text x="68" y="534" class="m" font-size="11.5">Actively maintained &#183; streaks, heatmaps, spaced-repetition scheduler</text>
    </g>

    <!-- Neuro-News -->
    <g class="row" style="animation-delay:0.26s">
      <rect x="28" y="556" width="864" height="170" rx="12" fill="#14161f" opacity="0.75" stroke="#2a2d42" stroke-width="1"/>
      <rect x="28" y="556" width="864" height="170" rx="12" fill="url(#glass_proj)"/>
      <rect x="28" y="556" width="4" height="170" rx="2" fill="#bb9af7"/>
      <text x="50" y="588" class="b" font-size="16">Neuro-News</text>
      <rect x="162" y="573" width="53" height="20" rx="10" fill="#e0af68" opacity="0.14"/>
      <circle cx="175" cy="583" r="3.3" fill="#e0af68"/>
      <text x="183" y="587" fill="#e0af68" font-family="'JetBrains Mono','Fira Code',ui-monospace,monospace" font-size="10.5" font-weight="700">ACTIVE</text>
      <text x="868" y="588" text-anchor="end" class="v" font-size="14">★ 3</text>
      <text x="50" y="611" class="impact">Impact: clusters overlapping news coverage from multiple sources into single ranked stories.</text>

      <text x="50" y="635" class="fieldlbl">TECH</text>
      <g style="color:#7982a9">
        <rect x="50" y="641" width="100" height="22" rx="11" fill="#171a28" opacity="0.8" stroke="#2a2d42"/>
        <use href="#ic-lang2" xlink:href="#ic-lang2" x="57" y="646" width="12" height="12"/>
        <text x="74" y="656" class="tag">TypeScript</text>

        <rect x="158" y="641" width="74" height="22" rx="11" fill="#171a28" opacity="0.8" stroke="#2a2d42"/>
        <use href="#ic-lang2" xlink:href="#ic-lang2" x="165" y="646" width="12" height="12"/>
        <text x="182" y="656" class="tag">Python</text>

        <rect x="240" y="641" width="47" height="22" rx="11" fill="#171a28" opacity="0.8" stroke="#2a2d42"/>
        <use href="#ic-lang2" xlink:href="#ic-lang2" x="247" y="646" width="12" height="12"/>
        <text x="264" y="656" class="tag">ML</text>
      </g>

      <text x="460" y="635" class="fieldlbl">GITHUB</text>
      <a href="https://github.com/SonamNarula/Neuro-News" xlink:href="https://github.com/SonamNarula/Neuro-News" target="_blank">
        <g style="color:#7982a9">
          <use href="#ic-git2" xlink:href="#ic-git2" x="460" y="642" width="12" height="12"/>
        </g>
        <text x="478" y="652" class="gh">github.com/SonamNarula/Neuro-News</text>
      </a>

      <text x="50" y="686" class="fieldlbl">STATUS</text>
      <g style="color:#7982a9">
        <use href="#ic-pulse2" xlink:href="#ic-pulse2" x="50" y="692" width="12" height="12"/>
      </g>
      <text x="68" y="702" class="m" font-size="11.5">In development &#183; deployment pending</text>
    </g>

    <!-- neural-folklore -->
    <g class="row" style="animation-delay:0.34s">
      <rect x="28" y="742" width="864" height="140" rx="12" fill="#14161f" opacity="0.75" stroke="#2a2d42" stroke-width="1"/>
      <rect x="28" y="742" width="864" height="140" rx="12" fill="url(#glass_proj)"/>
      <rect x="28" y="742" width="4" height="140" rx="2" fill="#7dcfff"/>
      <text x="50" y="774" class="b" font-size="16">neural-folklore</text>
      <rect x="210" y="759" width="66" height="20" rx="10" fill="#7dcfff" opacity="0.14"/>
      <circle cx="223" cy="769" r="3.3" fill="#7dcfff"/>
      <text x="231" y="773" fill="#7dcfff" font-family="'JetBrains Mono','Fira Code',ui-monospace,monospace" font-size="10.5" font-weight="700">LEARNING</text>
      <text x="868" y="774" text-anchor="end" class="v" font-size="14">★ 0</text>
      <text x="50" y="797" class="impact">Impact: hands-on ground truth for regression/classification before touching production ML.</text>

      <text x="50" y="821" class="fieldlbl">TECH</text>
      <g style="color:#7982a9">
        <rect x="50" y="827" width="74" height="22" rx="11" fill="#171a28" opacity="0.8" stroke="#2a2d42"/>
        <use href="#ic-lang2" xlink:href="#ic-lang2" x="57" y="832" width="12" height="12"/>
        <text x="74" y="842" class="tag">Python</text>

        <rect x="132" y="827" width="113" height="22" rx="11" fill="#171a28" opacity="0.8" stroke="#2a2d42"/>
        <use href="#ic-lang2" xlink:href="#ic-lang2" x="139" y="832" width="12" height="12"/>
        <text x="156" y="842" class="tag">scikit-learn</text>

        <rect x="253" y="827" width="67" height="22" rx="11" fill="#171a28" opacity="0.8" stroke="#2a2d42"/>
        <use href="#ic-lang2" xlink:href="#ic-lang2" x="260" y="832" width="12" height="12"/>
        <text x="277" y="842" class="tag">NumPy</text>
      </g>

      <text x="460" y="821" class="fieldlbl">GITHUB</text>
      <a href="https://github.com/SonamNarula/neural-folklore" xlink:href="https://github.com/SonamNarula/neural-folklore" target="_blank">
        <g style="color:#7982a9">
          <use href="#ic-git2" xlink:href="#ic-git2" x="460" y="828" width="12" height="12"/>
        </g>
        <text x="478" y="838" class="gh">github.com/SonamNarula/neural-folklore</text>
      </a>
    </g>
  </g>
  <rect x="0.75" y="0.75" width="918.5" height="898.5" rx="19.5" fill="none" stroke="url(#edge_proj)" stroke-width="1.4" opacity="0.7"/>
</svg>
