<svg width="680" height="280" viewBox="0 0 680 280" xmlns="http://www.w3.org/2000/svg">

  <rect width="680" height="280" rx="0" fill="#07000f"/>

  <rect x="0" y="0" width="60" height="60" fill="#1a0a2e"/>
  <rect x="620" y="0" width="60" height="60" fill="#1a0a2e"/>
  <rect x="0" y="220" width="60" height="60" fill="#1a0a2e"/>
  <rect x="620" y="220" width="60" height="60" fill="#1a0a2e"/>

  <rect x="0" y="0" width="5" height="40" fill="#c084fc"/>
  <rect x="0" y="0" width="40" height="5" fill="#c084fc"/>
  <rect x="675" y="0" width="5" height="40" fill="#c084fc"/>
  <rect x="640" y="0" width="40" height="5" fill="#c084fc"/>
  <rect x="0" y="240" width="5" height="40" fill="#c084fc"/>
  <rect x="0" y="275" width="40" height="5" fill="#c084fc"/>
  <rect x="675" y="240" width="5" height="40" fill="#c084fc"/>
  <rect x="640" y="275" width="40" height="5" fill="#c084fc"/>

  <circle cx="100" cy="60" r="1" fill="#c084fc" opacity="0.2"/>
  <circle cx="140" cy="60" r="1" fill="#c084fc" opacity="0.2"/>
  <circle cx="180" cy="60" r="1" fill="#c084fc" opacity="0.2"/>
  <circle cx="500" cy="60" r="1" fill="#c084fc" opacity="0.2"/>
  <circle cx="540" cy="60" r="1" fill="#c084fc" opacity="0.2"/>
  <circle cx="580" cy="60" r="1" fill="#c084fc" opacity="0.2"/>
  <circle cx="100" cy="220" r="1" fill="#c084fc" opacity="0.2"/>
  <circle cx="140" cy="220" r="1" fill="#c084fc" opacity="0.2"/>
  <circle cx="500" cy="220" r="1" fill="#c084fc" opacity="0.2"/>
  <circle cx="540" cy="220" r="1" fill="#c084fc" opacity="0.2"/>

  <text x="38" y="175" font-family="Georgia, serif" font-size="160" fill="#c084fc" opacity="0.06" font-weight="bold">"</text>

  <line x1="60" y1="36" x2="280" y2="36" stroke="#c084fc" stroke-width="0.6" stroke-opacity="0.3"/>
  <line x1="400" y1="36" x2="620" y2="36" stroke="#c084fc" stroke-width="0.6" stroke-opacity="0.3"/>
  <text x="340" y="41" font-family="'Courier New', monospace" font-size="9" fill="#6d28d9" text-anchor="middle" letter-spacing="5">SONAM NARULA</text>

  <text x="340" y="115" font-family="Ayuthaya, 'Palatino Linotype', Georgia, serif" font-size="26" fill="#c084fc" text-anchor="middle" font-weight="bold" letter-spacing="1">not rushing. not stopping either.</text>
  <text x="340" y="155" font-family="Ayuthaya, 'Palatino Linotype', Georgia, serif" font-size="22" fill="#a855f7" text-anchor="middle" letter-spacing="0.5">building things that outgrow me.</text>

  <line x1="200" y1="175" x2="480" y2="175" stroke="#c084fc" stroke-width="0.5" stroke-opacity="0.25"/>

  <text x="340" y="200" font-family="'Courier New', monospace" font-size="11" fill="#6b21a8" text-anchor="middle" letter-spacing="1.5">dsa as discipline  ·  jaipur → wherever effort compounds</text>

  <rect x="168" y="220" width="100" height="24" rx="12" fill="#1a0a2e" stroke="#c084fc" stroke-width="0.5" stroke-opacity="0.4"/>
  <text x="218" y="236" font-family="'Courier New', monospace" font-size="10" fill="#c084fc" text-anchor="middle" letter-spacing="1">DATA ANALYTICS</text>

  <rect x="278" y="220" width="60" height="24" rx="12" fill="#1a0a2e" stroke="#a855f7" stroke-width="0.5" stroke-opacity="0.4"/>
  <text x="308" y="236" font-family="'Courier New', monospace" font-size="10" fill="#a855f7" text-anchor="middle" letter-spacing="1">MERN</text>

  <rect x="348" y="220" width="40" height="24" rx="12" fill="#1a0a2e" stroke="#a855f7" stroke-width="0.5" stroke-opacity="0.4"/>
  <text x="368" y="236" font-family="'Courier New', monospace" font-size="10" fill="#a855f7" text-anchor="middle" letter-spacing="1">CRT</text>

  <rect x="398" y="220" width="40" height="24" rx="12" fill="#1a0a2e" stroke="#7c3aed" stroke-width="0.5" stroke-opacity="0.4"/>
  <text x="418" y="236" font-family="'Courier New', monospace" font-size="10" fill="#7c3aed" text-anchor="middle" letter-spacing="1">DSA</text>

  <line x1="60" y1="258" x2="280" y2="258" stroke="#c084fc" stroke-width="0.6" stroke-opacity="0.3"/>
  <line x1="400" y1="258" x2="620" y2="258" stroke="#c084fc" stroke-width="0.6" stroke-opacity="0.3"/>
  <text x="340" y="263" font-family="'Courier New', monospace" font-size="9" fill="#6d28d9" text-anchor="middle" letter-spacing="4">JECRC · 2023–27</text>

</svg>
